<svg width="1579" height="766" viewBox="0 0 1579 766" fill="none" xmlns="http://www.w3.org/2000/svg">
<g clip-path="url(#clip0_8_2)">
<rect width="1579" height="766" fill="#F8FAF0"/>
<path d="M12.9569 532.117C-7.08384 518.436 -23.1677 499.719 -33.6762 477.847L-85.801 369.36C-116.68 305.092 -93.5755 227.882 -32.4707 191.14L434.545 -89.6791C456.761 -103.037 482.287 -109.876 508.205 -109.412L672.471 -106.474C724.682 -105.54 771.905 -75.2462 794.52 -28.1773L902.344 196.235C943.754 282.422 887.192 383.602 792.083 393.472L600.269 413.377C566.572 416.874 535.334 432.632 512.495 457.654L359.713 625.039C313.329 675.857 236.619 684.796 179.792 646.004L12.9569 532.117Z" fill="#DCD19E" fill-opacity="0.1"/>
<path d="M724.668 1176.47C689.174 1169.91 657.656 1149.72 636.859 1120.22L618.772 1094.56C576.523 1034.63 588.459 952.133 645.962 906.633L1249.46 429.105C1261.92 419.247 1275.98 411.612 1291.04 406.535L1503.81 334.786C1561.75 315.249 1625.64 336.12 1660.87 386.094L1738.95 496.853C1789.55 568.64 1761.2 668.806 1680.48 703.418L1356.04 842.526C1337.22 850.595 1320.43 862.745 1306.89 878.099L1050.69 1168.48C1018.58 1204.88 969.726 1221.75 921.998 1212.93L724.668 1176.47Z" fill="#DCD19E" fill-opacity="0.1"/>
<g filter="url(#filter0_d_8_2)">
<rect x="21.525" y="636.513" width="12.1365" height="1557.33" transform="rotate(-90 21.525 636.513)" fill="#D1D6C2"/>
<rect x="18.8841" y="639.154" width="17.4183" height="1562.62" transform="rotate(-90 18.8841 639.154)" stroke="#8E9093" stroke-width="5.28187"/>
</g>
<g filter="url(#filter1_d_8_2)">
<rect x="21.525" y="734.708" width="12.1365" height="1557.33" transform="rotate(-90 21.525 734.708)" fill="#D1D6C2"/>
<rect x="18.8841" y="737.349" width="17.4183" height="1562.62" transform="rotate(-90 18.8841 737.349)" stroke="#8E9093" stroke-width="5.28187"/>
</g>
<path d="M608.939 755.092C607.276 755.092 605.929 753.744 605.929 752.082L605.929 605.103C605.929 603.532 607.136 602.226 608.702 602.102L644.729 599.261C646.504 599.121 648.012 600.544 647.975 602.325L644.865 752.144C644.831 753.782 643.494 755.092 641.856 755.092L608.939 755.092Z" fill="#D5B777" stroke="#9A7D3C" stroke-width="3.0101"/>
<line x1="635.894" y1="625.724" x2="635.894" y2="602.165" stroke="#9A7D3C" stroke-width="3.0101" stroke-linecap="round"/>
<line x1="618.415" y1="672.609" x2="618.415" y2="649.051" stroke="#9A7D3C" stroke-width="3.0101" stroke-linecap="round"/>
<line x1="630.254" y1="717.846" x2="630.254" y2="694.287" stroke="#9A7D3C" stroke-width="3.0101" stroke-linecap="round"/>
<line x1="626.284" y1="755.247" x2="626.284" y2="731.688" stroke="#9A7D3C" stroke-width="3.0101" stroke-linecap="round"/>
<path d="M279.606 755.092C277.944 755.092 276.596 753.744 276.596 752.081L276.596 605.103C276.596 603.532 277.804 602.226 279.37 602.102L315.396 599.261C317.171 599.121 318.679 600.544 318.642 602.324L315.533 752.144C315.499 753.782 314.162 755.092 312.523 755.092L279.606 755.092Z" fill="#D5B777" stroke="#9A7D3C" stroke-width="3.0101"/>
<line x1="284.81" y1="625.724" x2="284.81" y2="602.165" stroke="#9A7D3C" stroke-width="3.0101" stroke-linecap="round"/>
<line x1="294.529" y1="672.219" x2="294.529" y2="648.661" stroke="#9A7D3C" stroke-width="3.0101" stroke-linecap="round"/>
<line x1="288.049" y1="722.036" x2="288.049" y2="698.477" stroke="#9A7D3C" stroke-width="3.0101" stroke-linecap="round"/>
<line x1="307.487" y1="755.247" x2="307.487" y2="731.688" stroke="#9A7D3C" stroke-width="3.0101" stroke-linecap="round"/>
<path d="M545.514 753.3C543.828 753.372 542.412 752.043 542.376 750.356L539.269 602.207C539.232 600.47 540.67 599.063 542.406 599.137L575.256 600.54C576.842 600.608 578.103 601.896 578.137 603.483L581.253 748.824C581.288 750.462 580.008 751.826 578.372 751.896L545.514 753.3Z" fill="#D5B777" stroke="#9A7D3C" stroke-width="3.0101"/>
<line x1="550.654" y1="751.926" x2="550.654" y2="728.367" stroke="#9A7D3C" stroke-width="3.0101" stroke-linecap="round"/>
<line x1="566.853" y1="712.073" x2="566.853" y2="688.514" stroke="#9A7D3C" stroke-width="3.0101" stroke-linecap="round"/>
<line x1="547.415" y1="655.614" x2="547.415" y2="632.055" stroke="#9A7D3C" stroke-width="3.0101" stroke-linecap="round"/>
<line x1="566.853" y1="625.724" x2="566.853" y2="602.165" stroke="#9A7D3C" stroke-width="3.0101" stroke-linecap="round"/>
<path d="M216.182 753.3C214.495 753.372 213.079 752.043 213.044 750.356L209.936 602.207C209.9 600.47 211.338 599.063 213.074 599.137L245.924 600.54C247.51 600.608 248.771 601.896 248.805 603.483L251.921 748.824C251.956 750.462 250.676 751.826 249.04 751.896L216.182 753.3Z" fill="#D5B777" stroke="#9A7D3C" stroke-width="3.0101"/>
<line x1="221.322" y1="751.926" x2="221.322" y2="728.367" stroke="#9A7D3C" stroke-width="3.0101" stroke-linecap="round"/>
<line x1="237.52" y1="712.073" x2="237.52" y2="688.514" stroke="#9A7D3C" stroke-width="3.0101" stroke-linecap="round"/>
<line x1="218.082" y1="655.614" x2="218.082" y2="632.055" stroke="#9A7D3C" stroke-width="3.0101" stroke-linecap="round"/>
<line x1="237.52" y1="625.724" x2="237.52" y2="602.165" stroke="#9A7D3C" stroke-width="3.0101" stroke-linecap="round"/>
<path d="M478.787 763.263C477.1 763.335 475.684 762.007 475.649 760.319L472.541 612.171C472.505 610.433 473.943 609.026 475.679 609.1L508.529 610.503C510.115 610.571 511.376 611.859 511.41 613.446L514.526 758.788C514.561 760.425 513.281 761.79 511.645 761.86L478.787 763.263Z" fill="#D5B777" stroke="#9A7D3C" stroke-width="3.0101"/>
<line x1="480.687" y1="635.688" x2="480.687" y2="612.129" stroke="#9A7D3C" stroke-width="3.0101" stroke-linecap="round"/>
<line x1="496.886" y1="688.825" x2="496.886" y2="665.266" stroke="#9A7D3C" stroke-width="3.0101" stroke-linecap="round"/>
<line x1="487.167" y1="735.321" x2="487.167" y2="711.762" stroke="#9A7D3C" stroke-width="3.0101" stroke-linecap="round"/>
<line x1="506.604" y1="761.889" x2="506.604" y2="738.331" stroke="#9A7D3C" stroke-width="3.0101" stroke-linecap="round"/>
<path d="M149.517 763.263C147.831 763.335 146.415 762.007 146.379 760.319L143.272 612.171C143.235 610.433 144.673 609.026 146.409 609.1L179.259 610.503C180.845 610.571 182.106 611.859 182.14 613.446L185.256 758.788C185.291 760.425 184.011 761.79 182.375 761.86L149.517 763.263Z" fill="#D5B777" stroke="#9A7D3C" stroke-width="3.0101"/>
<line x1="151.418" y1="635.688" x2="151.418" y2="612.129" stroke="#9A7D3C" stroke-width="3.0101" stroke-linecap="round"/>
<line x1="167.616" y1="688.825" x2="167.616" y2="665.266" stroke="#9A7D3C" stroke-width="3.0101" stroke-linecap="round"/>
<line x1="157.897" y1="735.321" x2="157.897" y2="711.762" stroke="#9A7D3C" stroke-width="3.0101" stroke-linecap="round"/>
<line x1="177.335" y1="761.889" x2="177.335" y2="738.331" stroke="#9A7D3C" stroke-width="3.0101" stroke-linecap="round"/>
<path d="M76.2692 761.023C74.5828 761.095 73.1667 759.766 73.1313 758.079L70.0235 609.93C69.9871 608.193 71.4252 606.786 73.1614 606.86L106.011 608.263C107.597 608.331 108.858 609.619 108.892 611.206L112.008 756.548C112.043 758.185 110.763 759.55 109.127 759.62L76.2692 761.023Z" fill="#D5B777" stroke="#9A7D3C" stroke-width="3.0101"/>
<line x1="78.1699" y1="633.447" x2="78.1699" y2="609.889" stroke="#9A7D3C" stroke-width="3.0101" stroke-linecap="round"/>
<line x1="94.3682" y1="686.585" x2="94.3682" y2="663.026" stroke="#9A7D3C" stroke-width="3.0101" stroke-linecap="round"/>
<line x1="84.6491" y1="733.08" x2="84.6491" y2="709.522" stroke="#9A7D3C" stroke-width="3.0101" stroke-linecap="round"/>
<line x1="104.087" y1="759.649" x2="104.087" y2="736.091" stroke="#9A7D3C" stroke-width="3.0101" stroke-linecap="round"/>
<path d="M6.313 765.436C4.62652 765.508 3.21051 764.18 3.1751 762.492L0.0672775 614.344C0.0308308 612.606 1.46898 611.199 3.20517 611.273L36.055 612.676C37.6411 612.744 38.9019 614.032 38.9359 615.619L42.0519 760.961C42.087 762.598 40.807 763.963 39.1709 764.033L6.313 765.436Z" fill="#D5B777" stroke="#9A7D3C" stroke-width="3.0101"/>
<line x1="8.21364" y1="637.861" x2="8.21364" y2="614.302" stroke="#9A7D3C" stroke-width="3.0101" stroke-linecap="round"/>
<line x1="24.4119" y1="690.998" x2="24.4119" y2="667.44" stroke="#9A7D3C" stroke-width="3.0101" stroke-linecap="round"/>
<line x1="14.6928" y1="737.494" x2="14.6928" y2="713.935" stroke="#9A7D3C" stroke-width="3.0101" stroke-linecap="round"/>
<line x1="34.1307" y1="764.063" x2="34.1307" y2="740.504" stroke="#9A7D3C" stroke-width="3.0101" stroke-linecap="round"/>
<path d="M408.756 757.598C407.094 757.598 405.746 756.25 405.746 754.588L405.746 607.609C405.746 606.039 406.954 604.732 408.52 604.609L444.546 601.768C446.321 601.628 447.829 603.051 447.792 604.831L444.683 754.651C444.649 756.288 443.311 757.598 441.673 757.598L408.756 757.598Z" fill="#D5B777" stroke="#9A7D3C" stroke-width="3.0101"/>
<line x1="410.72" y1="757.753" x2="410.72" y2="734.195" stroke="#9A7D3C" stroke-width="3.0101" stroke-linecap="round"/>
<line x1="433.398" y1="734.506" x2="433.398" y2="710.947" stroke="#9A7D3C" stroke-width="3.0101" stroke-linecap="round"/>
<line x1="417.2" y1="678.047" x2="417.2" y2="654.488" stroke="#9A7D3C" stroke-width="3.0101" stroke-linecap="round"/>
<line x1="430.158" y1="628.231" x2="430.158" y2="604.672" stroke="#9A7D3C" stroke-width="3.0101" stroke-linecap="round"/>
<path d="M347.776 754.415C346.185 754.338 344.93 753.034 344.913 751.442L343.357 607.87C343.339 606.195 344.691 604.828 346.367 604.828L377.537 604.828C379.212 604.828 380.565 606.195 380.547 607.87L378.993 752.811C378.975 754.518 377.542 755.869 375.836 755.785L347.776 754.415Z" fill="#D5B777" stroke="#9A7D3C" stroke-width="3.0101"/>
<line x1="354.777" y1="754.433" x2="354.777" y2="730.874" stroke="#9A7D3C" stroke-width="3.0101" stroke-linecap="round"/>
<line x1="370.975" y1="628.231" x2="370.975" y2="604.672" stroke="#9A7D3C" stroke-width="3.0101" stroke-linecap="round"/>
<line x1="370.975" y1="731.185" x2="370.975" y2="707.626" stroke="#9A7D3C" stroke-width="3.0101" stroke-linecap="round"/>
<line x1="358.017" y1="664.763" x2="358.017" y2="641.204" stroke="#9A7D3C" stroke-width="3.0101" stroke-linecap="round"/>
<path d="M1138.45 755.092C1136.79 755.092 1135.44 753.744 1135.44 752.081L1135.44 605.103C1135.44 603.532 1136.65 602.226 1138.22 602.102L1174.24 599.261C1176.02 599.121 1177.53 600.544 1177.49 602.324L1174.38 752.144C1174.35 753.782 1173.01 755.092 1171.37 755.092L1138.45 755.092Z" fill="#D5B777" stroke="#9A7D3C" stroke-width="3.0101"/>
<line x1="1143.66" y1="625.724" x2="1143.66" y2="602.165" stroke="#9A7D3C" stroke-width="3.0101" stroke-linecap="round"/>
<line x1="1153.38" y1="672.219" x2="1153.38" y2="648.661" stroke="#9A7D3C" stroke-width="3.0101" stroke-linecap="round"/>
<line x1="1146.9" y1="722.036" x2="1146.9" y2="698.477" stroke="#9A7D3C" stroke-width="3.0101" stroke-linecap="round"/>
<line x1="1166.33" y1="755.247" x2="1166.33" y2="731.688" stroke="#9A7D3C" stroke-width="3.0101" stroke-linecap="round"/>
<path d="M1472.09 756.195C1470.43 756.195 1469.08 754.847 1469.08 753.185L1469.08 606.206C1469.08 604.635 1470.29 603.329 1471.85 603.205L1507.88 600.364C1509.66 600.224 1511.16 601.647 1511.13 603.428L1508.02 753.247C1507.98 754.885 1506.65 756.195 1505.01 756.195L1472.09 756.195Z" fill="#D5B777" stroke="#9A7D3C" stroke-width="3.0101"/>
<line x1="1477.29" y1="626.827" x2="1477.29" y2="603.268" stroke="#9A7D3C" stroke-width="3.0101" stroke-linecap="round"/>
<line x1="1487.01" y1="673.323" x2="1487.01" y2="649.764" stroke="#9A7D3C" stroke-width="3.0101" stroke-linecap="round"/>
<line x1="1480.53" y1="723.139" x2="1480.53" y2="699.58" stroke="#9A7D3C" stroke-width="3.0101" stroke-linecap="round"/>
<line x1="1499.97" y1="756.35" x2="1499.97" y2="732.791" stroke="#9A7D3C" stroke-width="3.0101" stroke-linecap="round"/>
<path d="M1543.2 758.816C1541.51 758.889 1540.1 757.56 1540.06 755.872L1536.95 607.724C1536.92 605.986 1538.35 604.579 1540.09 604.653L1572.94 606.057C1574.53 606.124 1575.79 607.412 1575.82 608.999L1578.94 754.341C1578.97 755.978 1577.69 757.343 1576.06 757.413L1543.2 758.816Z" fill="#D5B777" stroke="#9A7D3C" stroke-width="3.0101"/>
<line x1="1545.1" y1="631.241" x2="1545.1" y2="607.682" stroke="#9A7D3C" stroke-width="3.0101" stroke-linecap="round"/>
<line x1="1561.3" y1="684.378" x2="1561.3" y2="660.82" stroke="#9A7D3C" stroke-width="3.0101" stroke-linecap="round"/>
<line x1="1551.58" y1="730.874" x2="1551.58" y2="707.315" stroke="#9A7D3C" stroke-width="3.0101" stroke-linecap="round"/>
<line x1="1571.02" y1="757.443" x2="1571.02" y2="733.884" stroke="#9A7D3C" stroke-width="3.0101" stroke-linecap="round"/>
<path d="M815.579 758.402C813.917 758.402 812.569 757.054 812.569 755.392L812.569 608.413C812.569 606.842 813.777 605.536 815.342 605.412L851.369 602.571C853.144 602.431 854.652 603.854 854.615 605.634L851.505 755.454C851.471 757.092 850.134 758.402 848.496 758.402L815.579 758.402Z" fill="#D5B777" stroke="#9A7D3C" stroke-width="3.0101"/>
<line x1="820.783" y1="629.034" x2="820.783" y2="605.476" stroke="#9A7D3C" stroke-width="3.0101" stroke-linecap="round"/>
<line x1="830.501" y1="675.53" x2="830.501" y2="651.971" stroke="#9A7D3C" stroke-width="3.0101" stroke-linecap="round"/>
<line x1="824.022" y1="725.346" x2="824.022" y2="701.788" stroke="#9A7D3C" stroke-width="3.0101" stroke-linecap="round"/>
<line x1="843.46" y1="758.557" x2="843.46" y2="734.998" stroke="#9A7D3C" stroke-width="3.0101" stroke-linecap="round"/>
<path d="M1205.18 756.195C1203.52 756.195 1202.17 754.847 1202.17 753.185L1202.17 606.206C1202.17 604.635 1203.38 603.329 1204.94 603.205L1240.97 600.364C1242.75 600.224 1244.25 601.647 1244.22 603.428L1241.11 753.247C1241.07 754.885 1239.74 756.195 1238.1 756.195L1205.18 756.195Z" fill="#D5B777" stroke="#9A7D3C" stroke-width="3.0101"/>
<line x1="1210.38" y1="626.827" x2="1210.39" y2="603.268" stroke="#9A7D3C" stroke-width="3.0101" stroke-linecap="round"/>
<line x1="1220.1" y1="673.323" x2="1220.1" y2="649.764" stroke="#9A7D3C" stroke-width="3.0101" stroke-linecap="round"/>
<line x1="1213.62" y1="723.139" x2="1213.62" y2="699.58" stroke="#9A7D3C" stroke-width="3.0101" stroke-linecap="round"/>
<line x1="1233.06" y1="756.35" x2="1233.06" y2="732.791" stroke="#9A7D3C" stroke-width="3.0101" stroke-linecap="round"/>
<path d="M1075.03 758.816C1073.34 758.889 1071.93 757.56 1071.89 755.872L1068.78 607.724C1068.75 605.986 1070.19 604.579 1071.92 604.653L1104.77 606.057C1106.36 606.124 1107.62 607.412 1107.65 608.999L1110.77 754.341C1110.8 755.978 1109.52 757.343 1107.89 757.413L1075.03 758.816Z" fill="#D5B777" stroke="#9A7D3C" stroke-width="3.0101"/>
<line x1="1080.17" y1="757.443" x2="1080.17" y2="733.884" stroke="#9A7D3C" stroke-width="3.0101" stroke-linecap="round"/>
<line x1="1096.37" y1="717.59" x2="1096.37" y2="694.031" stroke="#9A7D3C" stroke-width="3.0101" stroke-linecap="round"/>
<line x1="1076.93" y1="661.131" x2="1076.93" y2="637.572" stroke="#9A7D3C" stroke-width="3.0101" stroke-linecap="round"/>
<line x1="1096.37" y1="631.241" x2="1096.37" y2="607.682" stroke="#9A7D3C" stroke-width="3.0101" stroke-linecap="round"/>
<path d="M879.152 756.61C877.465 756.682 876.049 755.353 876.014 753.666L872.906 605.517C872.87 603.78 874.308 602.373 876.044 602.447L908.894 603.85C910.48 603.918 911.741 605.206 911.775 606.793L914.891 752.135C914.926 753.772 913.646 755.137 912.01 755.206L879.152 756.61Z" fill="#D5B777" stroke="#9A7D3C" stroke-width="3.0101"/>
<line x1="884.292" y1="755.236" x2="884.292" y2="731.677" stroke="#9A7D3C" stroke-width="3.0101" stroke-linecap="round"/>
<line x1="900.49" y1="715.383" x2="900.49" y2="691.824" stroke="#9A7D3C" stroke-width="3.0101" stroke-linecap="round"/>
<line x1="881.053" y1="658.924" x2="881.052" y2="635.365" stroke="#9A7D3C" stroke-width="3.0101" stroke-linecap="round"/>
<line x1="900.49" y1="629.034" x2="900.49" y2="605.476" stroke="#9A7D3C" stroke-width="3.0101" stroke-linecap="round"/>
<path d="M1275.21 754.403C1273.53 754.475 1272.11 753.146 1272.07 751.459L1268.97 603.31C1268.93 601.573 1270.37 600.166 1272.1 600.24L1304.95 601.643C1306.54 601.711 1307.8 602.999 1307.83 604.586L1310.95 749.928C1310.99 751.565 1309.71 752.93 1308.07 752.999L1275.21 754.403Z" fill="#D5B777" stroke="#9A7D3C" stroke-width="3.0101"/>
<line x1="1280.35" y1="753.029" x2="1280.35" y2="729.47" stroke="#9A7D3C" stroke-width="3.0101" stroke-linecap="round"/>
<line x1="1296.55" y1="713.176" x2="1296.55" y2="689.617" stroke="#9A7D3C" stroke-width="3.0101" stroke-linecap="round"/>
<line x1="1277.11" y1="656.717" x2="1277.11" y2="633.158" stroke="#9A7D3C" stroke-width="3.0101" stroke-linecap="round"/>
<line x1="1296.55" y1="626.827" x2="1296.55" y2="603.268" stroke="#9A7D3C" stroke-width="3.0101" stroke-linecap="round"/>
<path d="M745.697 757.747C744.01 757.819 742.594 756.49 742.559 754.802L739.451 606.654C739.415 604.917 740.853 603.509 742.589 603.584L775.439 604.987C777.025 605.054 778.286 606.342 778.32 607.93L781.436 753.271C781.471 754.908 780.191 756.273 778.555 756.343L745.697 757.747Z" fill="#D5B777" stroke="#9A7D3C" stroke-width="3.0101"/>
<line x1="747.597" y1="630.171" x2="747.597" y2="606.612" stroke="#9A7D3C" stroke-width="3.0101" stroke-linecap="round"/>
<line x1="763.796" y1="683.308" x2="763.796" y2="659.75" stroke="#9A7D3C" stroke-width="3.0101" stroke-linecap="round"/>
<line x1="754.077" y1="729.804" x2="754.077" y2="706.245" stroke="#9A7D3C" stroke-width="3.0101" stroke-linecap="round"/>
<line x1="773.514" y1="756.373" x2="773.514" y2="732.814" stroke="#9A7D3C" stroke-width="3.0101" stroke-linecap="round"/>
<path d="M678.969 756.643C677.283 756.715 675.867 755.387 675.831 753.699L672.724 605.551C672.687 603.813 674.125 602.406 675.861 602.48L708.711 603.883C710.297 603.951 711.558 605.239 711.592 606.826L714.708 752.168C714.743 753.805 713.463 755.17 711.827 755.24L678.969 756.643Z" fill="#D5B777" stroke="#9A7D3C" stroke-width="3.0101"/>
<line x1="680.87" y1="629.068" x2="680.87" y2="605.509" stroke="#9A7D3C" stroke-width="3.0101" stroke-linecap="round"/>
<line x1="697.068" y1="682.205" x2="697.068" y2="658.647" stroke="#9A7D3C" stroke-width="3.0101" stroke-linecap="round"/>
<line x1="687.349" y1="728.701" x2="687.349" y2="705.142" stroke="#9A7D3C" stroke-width="3.0101" stroke-linecap="round"/>
<line x1="706.787" y1="755.27" x2="706.787" y2="731.711" stroke="#9A7D3C" stroke-width="3.0101" stroke-linecap="round"/>
<path d="M1408.67 754.403C1406.98 754.475 1405.56 753.147 1405.53 751.459L1402.42 603.311C1402.38 601.573 1403.82 600.166 1405.56 600.24L1438.41 601.643C1439.99 601.711 1441.26 602.999 1441.29 604.586L1444.41 749.928C1444.44 751.565 1443.16 752.93 1441.52 753L1408.67 754.403Z" fill="#D5B777" stroke="#9A7D3C" stroke-width="3.0101"/>
<line x1="1410.57" y1="626.827" x2="1410.57" y2="603.269" stroke="#9A7D3C" stroke-width="3.0101" stroke-linecap="round"/>
<line x1="1426.77" y1="679.965" x2="1426.77" y2="656.406" stroke="#9A7D3C" stroke-width="3.0101" stroke-linecap="round"/>
<line x1="1417.05" y1="726.461" x2="1417.05" y2="702.902" stroke="#9A7D3C" stroke-width="3.0101" stroke-linecap="round"/>
<line x1="1436.48" y1="753.029" x2="1436.48" y2="729.471" stroke="#9A7D3C" stroke-width="3.0101" stroke-linecap="round"/>
<path d="M942.576 757.598C940.914 757.598 939.566 756.25 939.566 754.588L939.566 607.609C939.566 606.039 940.774 604.732 942.34 604.609L978.366 601.768C980.141 601.628 981.649 603.051 981.612 604.831L978.503 754.651C978.469 756.288 977.132 757.598 975.493 757.598L942.576 757.598Z" fill="#D5B777" stroke="#9A7D3C" stroke-width="3.0101"/>
<line x1="944.54" y1="757.753" x2="944.54" y2="734.195" stroke="#9A7D3C" stroke-width="3.0101" stroke-linecap="round"/>
<line x1="967.218" y1="734.506" x2="967.218" y2="710.947" stroke="#9A7D3C" stroke-width="3.0101" stroke-linecap="round"/>
<line x1="951.02" y1="678.047" x2="951.02" y2="654.488" stroke="#9A7D3C" stroke-width="3.0101" stroke-linecap="round"/>
<line x1="963.978" y1="628.231" x2="963.978" y2="604.672" stroke="#9A7D3C" stroke-width="3.0101" stroke-linecap="round"/>
<path d="M1338.64 757.598C1336.97 757.598 1335.63 756.25 1335.63 754.588L1335.63 607.609C1335.63 606.039 1336.83 604.732 1338.4 604.609L1374.43 601.768C1376.2 601.628 1377.71 603.051 1377.67 604.831L1374.56 754.651C1374.53 756.288 1373.19 757.598 1371.55 757.598L1338.64 757.598Z" fill="#D5B777" stroke="#9A7D3C" stroke-width="3.0101"/>
<line x1="1340.6" y1="757.753" x2="1340.6" y2="734.195" stroke="#9A7D3C" stroke-width="3.0101" stroke-linecap="round"/>
<line x1="1363.28" y1="734.506" x2="1363.28" y2="710.947" stroke="#9A7D3C" stroke-width="3.0101" stroke-linecap="round"/>
<line x1="1347.08" y1="678.047" x2="1347.08" y2="654.488" stroke="#9A7D3C" stroke-width="3.0101" stroke-linecap="round"/>
<line x1="1360.04" y1="628.231" x2="1360.04" y2="604.672" stroke="#9A7D3C" stroke-width="3.0101" stroke-linecap="round"/>
<path d="M1010.75 754.415C1009.16 754.338 1007.9 753.034 1007.88 751.442L1006.33 607.87C1006.31 606.195 1007.66 604.828 1009.34 604.828L1040.51 604.828C1042.18 604.828 1043.53 606.195 1043.52 607.87L1041.96 752.811C1041.94 754.518 1040.51 755.869 1038.81 755.785L1010.75 754.415Z" fill="#D5B777" stroke="#9A7D3C" stroke-width="3.0101"/>
<line x1="1017.75" y1="754.433" x2="1017.75" y2="730.874" stroke="#9A7D3C" stroke-width="3.0101" stroke-linecap="round"/>
<line x1="1033.95" y1="628.231" x2="1033.95" y2="604.672" stroke="#9A7D3C" stroke-width="3.0101" stroke-linecap="round"/>
<line x1="1033.95" y1="731.185" x2="1033.95" y2="707.626" stroke="#9A7D3C" stroke-width="3.0101" stroke-linecap="round"/>
<line x1="1020.99" y1="664.763" x2="1020.99" y2="641.204" stroke="#9A7D3C" stroke-width="3.0101" stroke-linecap="round"/>
<path d="M1138.59 157.557C1131.05 157.557 1123.93 156.21 1117.25 153.515C1110.67 150.712 1104.96 146.777 1100.11 141.71C1095.37 136.644 1091.81 130.661 1089.44 123.761L1109.97 114.544C1112.99 121.12 1117.14 126.295 1122.42 130.068C1127.81 133.841 1133.74 135.727 1140.21 135.727C1143.66 135.727 1146.63 135.188 1149.11 134.11C1151.58 133.032 1153.53 131.577 1154.93 129.744C1156.33 127.804 1157.03 125.54 1157.03 122.953C1157.03 120.15 1156.17 117.778 1154.44 115.838C1152.72 113.79 1150.02 112.173 1146.36 110.987L1122.75 103.225C1113.15 100.099 1105.93 95.6788 1101.08 89.9652C1096.23 84.1439 1093.8 77.1906 1093.8 69.1055C1093.8 61.9905 1095.53 55.738 1098.98 50.3479C1102.53 44.9577 1107.44 40.7534 1113.69 37.735C1120.05 34.7165 1127.33 33.2073 1135.52 33.2073C1142.74 33.2073 1149.43 34.447 1155.57 36.9265C1161.72 39.4059 1167 42.9095 1171.42 47.4372C1175.95 51.9649 1179.34 57.4089 1181.61 63.7693L1161.23 72.9864C1158.97 67.3806 1155.57 63.0146 1151.05 59.8884C1146.52 56.6543 1141.34 55.0373 1135.52 55.0373C1132.18 55.0373 1129.22 55.5763 1126.63 56.6543C1124.04 57.7323 1122.05 59.2954 1120.65 61.3437C1119.24 63.2841 1118.54 65.548 1118.54 68.1352C1118.54 70.9381 1119.46 73.4176 1121.29 75.5736C1123.12 77.6219 1125.87 79.2389 1129.54 80.4247L1152.66 87.8631C1162.36 90.9894 1169.59 95.3554 1174.33 100.961C1179.18 106.567 1181.61 113.412 1181.61 121.497C1181.61 128.505 1179.77 134.757 1176.11 140.255C1172.44 145.645 1167.38 149.903 1160.91 153.03C1154.55 156.048 1147.11 157.557 1138.59 157.557Z" fill="#D4B777"/>
<path d="M1022.23 155.617V103.063L982.13 35.1477H1010.75L1039.86 86.246H1029.67L1058.62 35.1477H1087.24L1047.3 102.902V155.617H1022.23Z" fill="#D4B777"/>
<path d="M884.767 155.617L925.516 35.1477H958.827L999.576 155.617H972.248L964.163 131.038H920.018L911.933 155.617H884.767ZM926.971 109.208H957.21L938.776 52.2883H945.567L926.971 109.208Z" fill="#D4B777"/>
<path d="M762.327 155.617L730.795 35.1477H757.961L781.731 136.051H774.454L799.519 35.1477H825.391L850.455 136.051H843.178L866.949 35.1477H894.115L862.583 155.617H833.476L808.251 58.5947H816.659L791.433 155.617H762.327Z" fill="#D4B777"/>
<path d="M662.626 155.617V35.1477H687.69V133.787H738.627V155.617H662.626Z" fill="#D4B777"/>
<path d="M616.2 155.617V35.1477H641.264V155.617H616.2Z" fill="#D4B777"/>
<path d="M488.871 155.617L529.62 35.1477H562.931L603.68 155.617H576.352L568.267 131.038H524.122L516.037 155.617H488.871ZM531.075 109.208H561.314L542.88 52.2883H549.671L531.075 109.208Z" fill="#D4B777"/>
<path d="M380.207 155.617V35.1477H426.293C434.594 35.1477 441.924 36.603 448.284 39.5137C454.753 42.4244 459.819 46.7365 463.485 52.45C467.15 58.1635 468.983 65.2246 468.983 73.6332C468.983 81.8261 467.096 88.8333 463.323 94.6546C459.55 100.368 454.483 104.68 448.123 107.591L475.612 155.617H447.476L417.723 102.416L433.893 111.957H405.271V155.617H380.207ZM405.271 90.1269H426.455C430.012 90.1269 433.084 89.4262 435.672 88.0248C438.259 86.6234 440.253 84.6829 441.655 82.2035C443.164 79.724 443.918 76.8672 443.918 73.6332C443.918 70.2913 443.164 67.3806 441.655 64.9012C440.253 62.4217 438.259 60.4813 435.672 59.0798C433.084 57.6784 430.012 56.9777 426.455 56.9777H405.271V90.1269Z" fill="#D4B777"/>
<path fill-rule="evenodd" clip-rule="evenodd" d="M1114.18 161.126C1114.13 161.106 1114.08 161.086 1114.03 161.065C1106.45 157.835 1099.81 153.27 1094.18 147.386L1094.14 147.343L1094.12 147.319C1088.54 141.365 1084.4 134.366 1081.68 126.429C1080.3 122.415 1082.2 118.012 1086.08 116.274L1106.61 107.056C1107.41 106.699 1108.23 106.478 1109.06 106.386C1103.43 103.425 1098.63 99.7575 1094.82 95.2772L1094.77 95.2194C1088.61 87.8199 1085.6 78.9719 1085.6 69.1055C1085.6 60.6037 1087.68 52.7794 1092.06 45.9237C1092.08 45.9058 1092.09 45.888 1092.1 45.8702L1092.13 45.8269C1096.56 39.109 1102.64 33.9557 1110.12 30.3439L1110.17 30.3203C1117.8 26.7011 1126.31 25 1135.52 25C1143.7 25 1151.44 26.408 1158.64 29.3154C1165.78 32.1933 1172.01 36.3068 1177.26 41.6688C1182.68 47.0975 1186.7 53.589 1189.34 61.0171C1190.77 65.0393 1188.88 69.4873 1184.99 71.247L1164.62 80.4641C1162.58 81.3853 1160.26 81.4361 1158.18 80.6049C1156.11 79.7736 1154.46 78.1321 1153.62 76.0597C1151.9 71.7896 1149.46 68.7667 1146.38 66.6421C1146.35 66.6173 1146.31 66.5922 1146.28 66.5669C1143.21 64.3749 1139.72 63.2445 1135.52 63.2445C1133.06 63.2445 1131.2 63.6409 1129.79 64.2302C1128.47 64.7794 1127.81 65.4038 1127.42 65.9782C1127.38 66.0356 1127.34 66.0926 1127.3 66.149C1126.99 66.5759 1126.75 67.1259 1126.75 68.1352C1126.75 68.9355 1126.94 69.5201 1127.47 70.1728C1128.06 70.7916 1129.36 71.74 1132.06 72.6144C1132.06 72.6149 1132.06 72.6154 1132.07 72.616L1155.18 80.0501L1155.18 80.0513C1165.78 83.4674 1174.52 88.4974 1180.57 95.6264C1186.81 102.856 1189.81 111.649 1189.81 121.497C1189.81 130.022 1187.56 137.878 1182.94 144.808L1182.9 144.87C1178.34 151.57 1172.11 156.732 1164.48 160.419L1164.43 160.444C1156.76 164.083 1148.08 165.765 1138.59 165.765C1130.05 165.765 1121.89 164.233 1114.18 161.126ZM1174.33 100.961C1169.59 95.3553 1162.36 90.9893 1152.66 87.8631L1129.54 80.4247C1125.87 79.2389 1123.12 77.6219 1121.29 75.5736C1119.46 73.4176 1118.54 70.9381 1118.54 68.1352C1118.54 65.548 1119.24 63.2841 1120.65 61.3437C1122.05 59.2954 1124.04 57.7323 1126.63 56.6543C1129.22 55.5763 1132.18 55.0373 1135.52 55.0373C1141.34 55.0373 1146.52 56.6543 1151.05 59.8884C1154.85 62.5121 1157.85 66.0091 1160.05 70.3794C1160.48 71.2163 1160.87 72.0853 1161.23 72.9863L1181.61 63.7692C1180.71 61.2462 1179.63 58.8674 1178.38 56.6328C1178.32 56.5234 1178.26 56.4143 1178.19 56.3056C1176.32 53.0371 1174.06 50.0809 1171.42 47.4372C1167 42.9095 1161.72 39.4059 1155.57 36.9265C1149.43 34.447 1142.74 33.2073 1135.52 33.2073C1127.33 33.2073 1120.05 34.7165 1113.69 37.735C1107.44 40.7534 1102.53 44.9577 1098.98 50.3478C1095.53 55.738 1093.8 61.9905 1093.8 69.1055C1093.8 77.1906 1096.23 84.1439 1101.08 89.9652C1105.93 95.6788 1113.15 100.099 1122.75 103.225L1146.36 110.987C1150.02 112.173 1152.72 113.79 1154.44 115.838C1156.17 117.778 1157.03 120.15 1157.03 122.953C1157.03 125.54 1156.33 127.804 1154.93 129.744C1153.53 131.577 1151.58 133.032 1149.11 134.11C1146.63 135.188 1143.66 135.727 1140.21 135.727C1133.74 135.727 1127.81 133.841 1122.42 130.068C1117.14 126.295 1112.99 121.12 1109.97 114.544L1089.44 123.761C1091.81 130.661 1095.37 136.644 1100.11 141.71C1104.96 146.777 1110.67 150.712 1117.25 153.515C1123.93 156.21 1131.05 157.557 1138.59 157.557C1147.11 157.557 1154.55 156.048 1160.91 153.03C1167.38 149.903 1172.44 145.645 1176.11 140.255C1179.78 134.757 1181.61 128.505 1181.61 121.497C1181.61 113.412 1179.18 106.567 1174.33 100.961ZM1127.16 123.366C1131.19 126.176 1135.47 127.52 1140.21 127.52C1142.83 127.52 1144.63 127.107 1145.83 126.584C1147.17 126 1147.91 125.378 1148.33 124.85C1148.61 124.435 1148.82 123.894 1148.82 122.953C1148.82 121.986 1148.59 121.604 1148.31 121.29C1148.26 121.236 1148.21 121.18 1148.16 121.124C1147.77 120.659 1146.64 119.705 1143.83 118.795L1143.79 118.783L1120.2 111.028C1120.2 111.027 1120.2 111.026 1120.19 111.024C1118.99 110.633 1117.81 110.219 1116.66 109.784C1116.95 110.197 1117.21 110.643 1117.43 111.12C1119.92 116.534 1123.19 120.519 1127.16 123.366Z" fill="#AD9255"/>
<path fill-rule="evenodd" clip-rule="evenodd" d="M1022.23 163.824C1017.7 163.824 1014.03 160.15 1014.03 155.617V105.305L975.063 39.3207C973.564 36.7835 973.541 33.6378 975.002 31.0789C976.463 28.5199 979.183 26.9404 982.13 26.9404H1010.75C1013.7 26.9404 1016.42 28.5228 1017.88 31.0855L1034.73 60.6621L1051.47 31.1026C1052.93 28.5303 1055.66 26.9404 1058.62 26.9404H1087.24C1090.18 26.9404 1092.9 28.5188 1094.36 31.0763C1095.82 33.6338 1095.8 36.7782 1094.31 39.3156L1055.5 105.14V155.617C1055.5 160.15 1051.83 163.824 1047.3 163.824H1022.23ZM1047.3 102.902L1087.24 35.1477H1058.62L1034.75 77.2789L1010.75 35.1477H982.13L1022.23 103.063V155.617H1047.3V102.902Z" fill="#AD9255"/>
<path fill-rule="evenodd" clip-rule="evenodd" d="M878.098 160.401C876.556 158.252 876.145 155.492 876.992 152.987L917.741 32.5179C918.869 29.1842 921.997 26.9404 925.516 26.9404H958.827C962.346 26.9404 965.474 29.1842 966.601 32.5179L1007.35 152.987C1008.2 155.492 1007.79 158.252 1006.24 160.401C1004.7 162.55 1002.22 163.824 999.576 163.824H972.248C968.704 163.824 965.56 161.549 964.452 158.181L958.223 139.245H925.958L919.729 158.181C918.622 161.549 915.477 163.824 911.933 163.824H884.767C882.122 163.824 879.64 162.55 878.098 160.401ZM920.018 131.038H964.163L972.248 155.617H999.576L958.827 35.1477H925.516L884.767 155.617H911.933L920.018 131.038ZM926.971 109.208H957.21L942.157 62.7277L926.971 109.208ZM942.122 89.2601L938.287 101.001H945.925L942.122 89.2601Z" fill="#AD9255"/>
<path fill-rule="evenodd" clip-rule="evenodd" d="M762.327 163.824C758.594 163.824 755.332 161.306 754.387 157.695L722.855 37.2259C722.211 34.7656 722.744 32.1457 724.298 30.1326C725.852 28.1194 728.251 26.9404 730.794 26.9404H757.961C761.768 26.9404 765.076 29.5595 765.949 33.2658L778.4 86.1199L791.553 33.1692C792.462 29.5097 795.748 26.9404 799.518 26.9404H825.391C829.162 26.9404 832.447 29.5097 833.356 33.1692L846.509 86.1198L858.96 33.2658C859.833 29.5595 863.141 26.9404 866.949 26.9404H894.115C896.658 26.9404 899.058 28.1194 900.612 30.1326C902.166 32.1457 902.699 34.7656 902.055 37.2259L870.523 157.695C869.578 161.306 866.315 163.824 862.583 163.824H833.476C829.739 163.824 826.474 161.299 825.533 157.682L812.455 107.381L799.376 157.682C798.436 161.299 795.171 163.824 791.433 163.824H762.327ZM812.455 74.7651L833.476 155.617H862.583L894.115 35.1477H866.949L846.72 121.016L825.391 35.1477H799.518L778.189 121.016L757.961 35.1477H730.794L762.327 155.617H791.433L812.455 74.7651Z" fill="#AD9255"/>
<path fill-rule="evenodd" clip-rule="evenodd" d="M662.626 163.824C658.094 163.824 654.419 160.15 654.419 155.617V35.1477C654.419 30.615 658.094 26.9404 662.626 26.9404H687.69C692.223 26.9404 695.898 30.615 695.898 35.1477V125.58H738.627C743.16 125.58 746.834 129.254 746.834 133.787V155.617C746.834 160.15 743.16 163.824 738.627 163.824H662.626ZM687.69 133.787V35.1477H662.626V155.617H738.627V133.787H687.69Z" fill="#AD9255"/>
<path fill-rule="evenodd" clip-rule="evenodd" d="M616.2 163.824C611.667 163.824 607.992 160.15 607.992 155.617V35.1477C607.992 30.615 611.667 26.9404 616.2 26.9404H641.264C645.797 26.9404 649.471 30.615 649.471 35.1477V155.617C649.471 160.15 645.797 163.824 641.264 163.824H616.2ZM616.2 155.617H641.264V35.1477H616.2V155.617Z" fill="#AD9255"/>
<path fill-rule="evenodd" clip-rule="evenodd" d="M482.202 160.401C480.661 158.252 480.249 155.492 481.096 152.987L521.846 32.5179C522.973 29.1842 526.101 26.9404 529.62 26.9404H562.931C566.45 26.9404 569.578 29.1842 570.706 32.5179L611.455 152.987C612.302 155.492 611.891 158.252 610.349 160.401C608.807 162.55 606.325 163.824 603.68 163.824H576.352C572.808 163.824 569.664 161.549 568.556 158.181L562.327 139.245H530.062L523.833 158.181C522.726 161.549 519.582 163.824 516.037 163.824H488.871C486.226 163.824 483.744 162.55 482.202 160.401ZM524.122 131.038H568.267L576.352 155.617H603.68L562.931 35.1477H529.62L488.871 155.617H516.037L524.122 131.038ZM531.075 109.208H561.314L546.261 62.7277L531.075 109.208ZM546.227 89.2601L542.391 101.001H550.029L546.227 89.2601Z" fill="#AD9255"/>
<path fill-rule="evenodd" clip-rule="evenodd" d="M380.207 163.824C375.675 163.824 372 160.15 372 155.617V35.1477C372 30.615 375.675 26.9404 380.207 26.9404H426.293C435.545 26.9404 444.069 28.5633 451.676 32.04C459.516 35.5728 465.833 40.9109 470.393 48.0184C475.088 55.3383 477.19 64.0288 477.19 73.6332C477.19 83.1187 474.991 91.7426 470.21 99.1185L470.172 99.1773C467.197 103.682 463.552 107.484 459.282 110.565L482.735 151.54C484.189 154.08 484.18 157.202 482.712 159.734C481.244 162.266 478.539 163.824 475.612 163.824H447.476C444.504 163.824 441.764 162.217 440.313 159.623L418.245 120.164H413.479V155.617C413.479 160.15 409.804 163.824 405.271 163.824H380.207ZM405.271 111.957H423.058L447.476 155.617H475.612L448.123 107.591C450.29 106.599 452.308 105.444 454.175 104.127C457.786 101.578 460.836 98.421 463.323 94.6546C467.096 88.8333 468.983 81.8261 468.983 73.6332C468.983 65.2246 467.15 58.1635 463.485 52.45C459.819 46.7365 454.753 42.4244 448.284 39.5137C441.924 36.603 434.594 35.1477 426.293 35.1477H380.207V155.617H405.271V111.957ZM441.655 64.9012C443.164 67.3806 443.918 70.2913 443.918 73.6332C443.918 76.8672 443.164 79.724 441.655 82.2034C440.253 84.6829 438.259 86.6233 435.672 88.0248C433.084 89.4262 430.012 90.1269 426.454 90.1269H405.271V56.9777H426.454C430.012 56.9777 433.084 57.6784 435.672 59.0798C438.259 60.4813 440.253 62.4217 441.655 64.9012ZM413.479 65.185V81.9196H426.454C428.93 81.9196 430.602 81.4366 431.763 80.8082C433.041 80.1155 433.893 79.2561 434.51 78.165C434.553 78.088 434.598 78.0117 434.644 77.9361C435.284 76.8855 435.711 75.5387 435.711 73.6332C435.711 71.5646 435.258 70.1775 434.644 69.1685C434.598 69.0929 434.553 69.0166 434.51 68.9396C433.893 67.8485 433.041 66.9891 431.763 66.2964C430.602 65.668 428.93 65.185 426.454 65.185H413.479Z" fill="#AD9255"/>
<line x1="377.742" y1="46.7278" x2="426.776" y2="46.7278" stroke="#AD9255" stroke-width="2.73576"/>
<line x1="498.115" y1="122.645" x2="532.312" y2="122.645" stroke="#AD9255" stroke-width="4.10364"/>
<line x1="539.152" y1="49.4635" x2="573.349" y2="49.4635" stroke="#AD9255" stroke-width="5.47151"/>
<line x1="633.535" y1="53.5671" x2="633.535" y2="33.049" stroke="#AD9255" stroke-width="5.47151"/>
<line x1="622.592" y1="161.629" x2="622.592" y2="141.111" stroke="#AD9255" stroke-width="5.47151"/>
<line x1="757.384" y1="62.2497" x2="750.545" y2="33.5242" stroke="#AD9255" stroke-width="4.10364"/>
<line x1="718.344" y1="145.899" x2="740.23" y2="145.899" stroke="#AD9255" stroke-width="4.10364"/>
<line x1="659.525" y1="131.536" x2="703.297" y2="131.536" stroke="#AD9255" stroke-width="5.47151"/>
<line x1="972.769" y1="123.329" x2="991.919" y2="123.329" stroke="#AD9255" stroke-width="2.73576"/>
<line x1="1138.28" y1="145.215" x2="1179.32" y2="145.215" stroke="#AD9255" stroke-width="5.47151"/>
<line x1="1099.98" y1="46.7279" x2="1131.44" y2="46.7279" stroke="#AD9255" stroke-width="5.47151"/>
<line x1="778.457" y1="110.388" x2="790.768" y2="162.367" stroke="#AD9255" stroke-width="5.47151"/>
<line x1="846.851" y1="110.388" x2="859.162" y2="162.367" stroke="#AD9255" stroke-width="5.47151"/>
<line x1="846.851" y1="110.388" x2="859.162" y2="162.367" stroke="#AD9255" stroke-width="5.47151"/>
<line x1="898.904" y1="106.914" x2="989.184" y2="106.914" stroke="#AD9255" stroke-width="5.47151"/>
<line x1="887.961" y1="134.272" x2="994.655" y2="134.272" stroke="#AD9255" stroke-width="5.47151"/>
<line x1="1032.67" y1="67.3903" x2="1051.82" y2="105.691" stroke="#AD9255" stroke-width="5.47151"/>
<line x1="991.495" y1="31.5853" x2="1017.48" y2="72.6217" stroke="#AD9255" stroke-width="5.47151"/>
<line x1="489.908" y1="134.272" x2="596.603" y2="134.272" stroke="#AD9255" stroke-width="5.47151"/>
<line x1="499.483" y1="108.282" x2="595.235" y2="108.282" stroke="#AD9255" stroke-width="5.47151"/>
<line x1="377.742" y1="111.018" x2="455.711" y2="111.018" stroke="#AD9255" stroke-width="5.47151"/>
<line x1="866.109" y1="62.8392" x2="872.948" y2="32.7459" stroke="#AD9255" stroke-width="2.73576"/>
</g>
<defs>
<filter id="filter0_d_8_2" x="10.9613" y="613.812" width="1578.46" height="33.2642" filterUnits="userSpaceOnUse" color-interpolation-filters="sRGB">
<feFlood flood-opacity="0" result="BackgroundImageFix"/>
<feColorMatrix in="SourceAlpha" type="matrix" values="0 0 0 0 0 0 0 0 0 0 0 0 0 0 0 0 0 0 127 0" result="hardAlpha"/>
<feMorphology radius="5.28187" operator="dilate" in="SourceAlpha" result="effect1_dropShadow_8_2"/>
<feOffset/>
<feComposite in2="hardAlpha" operator="out"/>
<feColorMatrix type="matrix" values="0 0 0 0 0.281908 0 0 0 0 0.387944 0 0 0 0 0.546999 0 0 0 0.02 0"/>
<feBlend mode="normal" in2="BackgroundImageFix" result="effect1_dropShadow_8_2"/>
<feBlend mode="normal" in="SourceGraphic" in2="effect1_dropShadow_8_2" result="shape"/>
</filter>
<filter id="filter1_d_8_2" x="10.9613" y="712.008" width="1578.46" height="33.2642" filterUnits="userSpaceOnUse" color-interpolation-filters="sRGB">
<feFlood flood-opacity="0" result="BackgroundImageFix"/>
<feColorMatrix in="SourceAlpha" type="matrix" values="0 0 0 0 0 0 0 0 0 0 0 0 0 0 0 0 0 0 127 0" result="hardAlpha"/>
<feMorphology radius="5.28187" operator="dilate" in="SourceAlpha" result="effect1_dropShadow_8_2"/>
<feOffset/>
<feComposite in2="hardAlpha" operator="out"/>
<feColorMatrix type="matrix" values="0 0 0 0 0.281908 0 0 0 0 0.387944 0 0 0 0 0.546999 0 0 0 0.02 0"/>
<feBlend mode="normal" in2="BackgroundImageFix" result="effect1_dropShadow_8_2"/>
<feBlend mode="normal" in="SourceGraphic" in2="effect1_dropShadow_8_2" result="shape"/>
</filter>
<clipPath id="clip0_8_2">
<rect width="1579" height="766" fill="white"/>
</clipPath>
</defs>
</svg>
