<svg width="1280" height="832" viewBox="0 0 1280 832" fill="none" xmlns="http://www.w3.org/2000/svg">
<g clip-path="url(#clip0_35_3685)">
<rect width="1280" height="832" fill="#F8FAF0"/>
<path d="M4.95687 538.116C-15.0838 524.436 -31.1677 505.718 -41.6762 483.847L-93.801 375.36C-124.68 311.092 -101.576 233.882 -40.4707 197.14L426.545 -83.6793C448.761 -97.0377 474.287 -103.876 500.205 -103.412L664.471 -100.475C716.682 -99.5407 763.905 -69.2464 786.52 -22.1775L894.344 202.234C935.754 288.421 879.192 389.602 784.083 399.472L592.269 419.377C558.572 422.874 527.334 438.632 504.495 463.654L351.713 631.039C305.329 681.857 228.619 690.796 171.792 652.004L4.95687 538.116Z" fill="#DCD19E" fill-opacity="0.1"/>
<path d="M724.668 1176.47C689.174 1169.91 657.656 1149.72 636.859 1120.22L618.772 1094.56C576.523 1034.63 588.459 952.133 645.962 906.633L1249.46 429.105C1261.92 419.247 1275.98 411.612 1291.04 406.535L1503.81 334.786C1561.75 315.249 1625.64 336.12 1660.87 386.094L1738.95 496.853C1789.55 568.64 1761.2 668.806 1680.48 703.418L1356.04 842.526C1337.22 850.595 1320.43 862.745 1306.89 878.099L1050.69 1168.48C1018.58 1204.88 969.726 1221.75 921.998 1212.93L724.668 1176.47Z" fill="#DCD19E" fill-opacity="0.1"/>
<g filter="url(#filter0_d_35_3685)">
<rect x="-110" y="661" width="10.9999" height="1447" transform="rotate(-90 -110 661)" fill="#D1D6C2"/>
<rect x="-112.641" y="663.641" width="16.2818" height="1452.28" transform="rotate(-90 -112.641 663.641)" stroke="#8E9093" stroke-width="5.28187"/>
</g>
<g filter="url(#filter1_d_35_3685)">
<rect x="-110" y="750" width="10.9999" height="1447" transform="rotate(-90 -110 750)" fill="#D1D6C2"/>
<rect x="-112.641" y="752.641" width="16.2818" height="1452.28" transform="rotate(-90 -112.641 752.641)" stroke="#8E9093" stroke-width="5.28187"/>
</g>
<path d="M436.01 768.475C434.348 768.475 433 767.127 433 765.465L433 632.797C433 631.225 434.211 629.917 435.779 629.796L468.82 627.255C470.594 627.118 472.099 628.541 472.061 630.32L469.184 765.529C469.149 767.166 467.812 768.475 466.174 768.475L436.01 768.475Z" fill="#D5B777" stroke="#9A7D3C" stroke-width="3.0101"/>
<line x1="460.736" y1="651.081" x2="460.736" y2="630.01" stroke="#9A7D3C" stroke-width="3.0101" stroke-linecap="round"/>
<line x1="444.495" y1="693.576" x2="444.495" y2="672.505" stroke="#9A7D3C" stroke-width="3.0101" stroke-linecap="round"/>
<line x1="455.495" y1="734.576" x2="455.495" y2="713.505" stroke="#9A7D3C" stroke-width="3.0101" stroke-linecap="round"/>
<line x1="451.807" y1="768.474" x2="451.807" y2="747.404" stroke="#9A7D3C" stroke-width="3.0101" stroke-linecap="round"/>
<path d="M130.01 768.475C128.348 768.475 127 767.127 127 765.465L127 632.797C127 631.225 128.211 629.917 129.779 629.796L162.82 627.255C164.594 627.118 166.099 628.541 166.061 630.32L163.184 765.529C163.149 767.166 161.812 768.475 160.174 768.475L130.01 768.475Z" fill="#D5B777" stroke="#9A7D3C" stroke-width="3.0101"/>
<line x1="134.525" y1="651.081" x2="134.525" y2="630.01" stroke="#9A7D3C" stroke-width="3.0101" stroke-linecap="round"/>
<line x1="143.555" y1="693.222" x2="143.555" y2="672.151" stroke="#9A7D3C" stroke-width="3.0101" stroke-linecap="round"/>
<line x1="137.535" y1="738.373" x2="137.535" y2="717.302" stroke="#9A7D3C" stroke-width="3.0101" stroke-linecap="round"/>
<line x1="155.596" y1="768.474" x2="155.596" y2="747.404" stroke="#9A7D3C" stroke-width="3.0101" stroke-linecap="round"/>
<path d="M377.079 766.842C375.394 766.912 373.98 765.585 373.944 763.899L371.069 630.206C371.032 628.469 372.468 627.061 374.204 627.134L404.299 628.388C405.886 628.454 407.148 629.741 407.183 631.329L410.066 762.514C410.102 764.153 408.82 765.519 407.182 765.588L377.079 766.842Z" fill="#D5B777" stroke="#9A7D3C" stroke-width="3.0101"/>
<line x1="381.535" y1="765.465" x2="381.535" y2="744.394" stroke="#9A7D3C" stroke-width="3.0101" stroke-linecap="round"/>
<line x1="396.586" y1="729.344" x2="396.586" y2="708.273" stroke="#9A7D3C" stroke-width="3.0101" stroke-linecap="round"/>
<line x1="378.525" y1="678.172" x2="378.525" y2="657.101" stroke="#9A7D3C" stroke-width="3.0101" stroke-linecap="round"/>
<line x1="396.586" y1="651.081" x2="396.586" y2="630.01" stroke="#9A7D3C" stroke-width="3.0101" stroke-linecap="round"/>
<path d="M71.0788 766.842C69.3941 766.912 67.9803 765.585 67.9441 763.899L65.0689 630.206C65.0316 628.469 66.468 627.061 68.2036 627.134L98.2992 628.388C99.886 628.454 101.148 629.741 101.183 631.329L104.066 762.514C104.102 764.153 102.82 765.519 101.182 765.588L71.0788 766.842Z" fill="#D5B777" stroke="#9A7D3C" stroke-width="3.0101"/>
<line x1="75.5352" y1="765.465" x2="75.5352" y2="744.394" stroke="#9A7D3C" stroke-width="3.0101" stroke-linecap="round"/>
<line x1="90.5859" y1="729.344" x2="90.5859" y2="708.273" stroke="#9A7D3C" stroke-width="3.0101" stroke-linecap="round"/>
<line x1="72.5252" y1="678.172" x2="72.5252" y2="657.101" stroke="#9A7D3C" stroke-width="3.0101" stroke-linecap="round"/>
<line x1="90.5858" y1="651.081" x2="90.5858" y2="630.01" stroke="#9A7D3C" stroke-width="3.0101" stroke-linecap="round"/>
<path d="M315.079 775.872C313.394 775.942 311.98 774.615 311.944 772.929L309.069 639.236C309.032 637.499 310.468 636.092 312.204 636.164L342.299 637.418C343.886 637.484 345.148 638.771 345.183 640.359L348.066 771.544C348.102 773.183 346.82 774.55 345.182 774.618L315.079 775.872Z" fill="#D5B777" stroke="#9A7D3C" stroke-width="3.0101"/>
<line x1="316.525" y1="660.111" x2="316.525" y2="639.04" stroke="#9A7D3C" stroke-width="3.0101" stroke-linecap="round"/>
<line x1="331.576" y1="708.272" x2="331.576" y2="687.202" stroke="#9A7D3C" stroke-width="3.0101" stroke-linecap="round"/>
<line x1="322.545" y1="750.414" x2="322.545" y2="729.343" stroke="#9A7D3C" stroke-width="3.0101" stroke-linecap="round"/>
<line x1="340.606" y1="774.495" x2="340.606" y2="753.424" stroke="#9A7D3C" stroke-width="3.0101" stroke-linecap="round"/>
<path d="M9.13737 775.872C7.45267 775.942 6.03891 774.615 6.00266 772.929L3.12753 639.236C3.09018 637.499 4.52659 636.092 6.26224 636.164L36.3578 637.418C37.9445 637.484 39.207 638.771 39.2418 640.359L42.125 771.544C42.1611 773.183 40.8789 774.55 39.241 774.618L9.13737 775.872Z" fill="#D5B777" stroke="#9A7D3C" stroke-width="3.0101"/>
<line x1="10.5837" y1="660.111" x2="10.5837" y2="639.04" stroke="#9A7D3C" stroke-width="3.0101" stroke-linecap="round"/>
<line x1="25.6344" y1="708.272" x2="25.6344" y2="687.202" stroke="#9A7D3C" stroke-width="3.0101" stroke-linecap="round"/>
<line x1="16.6039" y1="750.414" x2="16.6039" y2="729.343" stroke="#9A7D3C" stroke-width="3.0101" stroke-linecap="round"/>
<line x1="34.6646" y1="774.495" x2="34.6646" y2="753.424" stroke="#9A7D3C" stroke-width="3.0101" stroke-linecap="round"/>
<path d="M250.01 770.746C248.348 770.746 247 769.398 247 767.736L247 635.069C247 633.496 248.211 632.188 249.779 632.068L282.82 629.526C284.594 629.39 286.099 630.813 286.061 632.591L283.184 767.8C283.149 769.437 281.812 770.746 280.174 770.746L250.01 770.746Z" fill="#D5B777" stroke="#9A7D3C" stroke-width="3.0101"/>
<line x1="251.515" y1="770.746" x2="251.515" y2="749.675" stroke="#9A7D3C" stroke-width="3.0101" stroke-linecap="round"/>
<line x1="272.586" y1="749.676" x2="272.586" y2="728.605" stroke="#9A7D3C" stroke-width="3.0101" stroke-linecap="round"/>
<line x1="257.535" y1="698.504" x2="257.535" y2="677.433" stroke="#9A7D3C" stroke-width="3.0101" stroke-linecap="round"/>
<line x1="269.576" y1="653.352" x2="269.576" y2="632.282" stroke="#9A7D3C" stroke-width="3.0101" stroke-linecap="round"/>
<path d="M193.34 767.871C191.748 767.795 190.491 766.492 190.474 764.898L189.034 635.325C189.015 633.65 190.368 632.282 192.044 632.282L220.573 632.282C222.248 632.282 223.601 633.65 223.583 635.325L222.145 766.119C222.127 767.825 220.696 769.174 218.992 769.093L193.34 767.871Z" fill="#D5B777" stroke="#9A7D3C" stroke-width="3.0101"/>
<line x1="199.535" y1="767.736" x2="199.535" y2="746.665" stroke="#9A7D3C" stroke-width="3.0101" stroke-linecap="round"/>
<line x1="214.586" y1="653.352" x2="214.586" y2="632.282" stroke="#9A7D3C" stroke-width="3.0101" stroke-linecap="round"/>
<line x1="214.586" y1="746.666" x2="214.586" y2="725.595" stroke="#9A7D3C" stroke-width="3.0101" stroke-linecap="round"/>
<line x1="202.545" y1="686.464" x2="202.545" y2="665.393" stroke="#9A7D3C" stroke-width="3.0101" stroke-linecap="round"/>
<path d="M928.01 768.475C926.348 768.475 925 767.127 925 765.465L925 632.797C925 631.225 926.211 629.917 927.779 629.796L960.82 627.255C962.594 627.118 964.098 628.541 964.061 630.32L961.184 765.529C961.149 767.166 959.812 768.475 958.174 768.475L928.01 768.475Z" fill="#D5B777" stroke="#9A7D3C" stroke-width="3.0101"/>
<line x1="932.525" y1="651.081" x2="932.525" y2="630.01" stroke="#9A7D3C" stroke-width="3.0101" stroke-linecap="round"/>
<line x1="941.555" y1="693.222" x2="941.555" y2="672.151" stroke="#9A7D3C" stroke-width="3.0101" stroke-linecap="round"/>
<line x1="935.535" y1="738.373" x2="935.535" y2="717.302" stroke="#9A7D3C" stroke-width="3.0101" stroke-linecap="round"/>
<line x1="953.596" y1="768.474" x2="953.596" y2="747.404" stroke="#9A7D3C" stroke-width="3.0101" stroke-linecap="round"/>
<path d="M1238.01 769.475C1236.35 769.475 1235 768.127 1235 766.465L1235 633.797C1235 632.225 1236.21 630.917 1237.78 630.796L1270.82 628.255C1272.59 628.118 1274.1 629.541 1274.06 631.32L1271.18 766.529C1271.15 768.166 1269.81 769.475 1268.17 769.475L1238.01 769.475Z" fill="#D5B777" stroke="#9A7D3C" stroke-width="3.0101"/>
<line x1="1242.53" y1="652.081" x2="1242.53" y2="631.01" stroke="#9A7D3C" stroke-width="3.0101" stroke-linecap="round"/>
<line x1="1251.56" y1="694.222" x2="1251.56" y2="673.151" stroke="#9A7D3C" stroke-width="3.0101" stroke-linecap="round"/>
<line x1="1245.54" y1="739.373" x2="1245.54" y2="718.302" stroke="#9A7D3C" stroke-width="3.0101" stroke-linecap="round"/>
<line x1="1263.6" y1="769.474" x2="1263.6" y2="748.404" stroke="#9A7D3C" stroke-width="3.0101" stroke-linecap="round"/>
<path d="M622.01 769.475C620.348 769.475 619 768.127 619 766.465L619 633.797C619 632.225 620.211 630.917 621.779 630.796L654.82 628.255C656.594 628.118 658.099 629.541 658.061 631.32L655.184 766.529C655.149 768.166 653.812 769.475 652.175 769.475L622.01 769.475Z" fill="#D5B777" stroke="#9A7D3C" stroke-width="3.0101"/>
<line x1="626.525" y1="652.081" x2="626.525" y2="631.01" stroke="#9A7D3C" stroke-width="3.0101" stroke-linecap="round"/>
<line x1="635.555" y1="694.222" x2="635.555" y2="673.151" stroke="#9A7D3C" stroke-width="3.0101" stroke-linecap="round"/>
<line x1="629.535" y1="739.373" x2="629.535" y2="718.302" stroke="#9A7D3C" stroke-width="3.0101" stroke-linecap="round"/>
<line x1="647.596" y1="769.474" x2="647.596" y2="748.404" stroke="#9A7D3C" stroke-width="3.0101" stroke-linecap="round"/>
<path d="M990.01 769.475C988.348 769.475 987 768.127 987 766.465L987 633.797C987 632.225 988.211 630.917 989.779 630.796L1022.82 628.255C1024.59 628.118 1026.1 629.541 1026.06 631.32L1023.18 766.529C1023.15 768.166 1021.81 769.475 1020.17 769.475L990.01 769.475Z" fill="#D5B777" stroke="#9A7D3C" stroke-width="3.0101"/>
<line x1="994.525" y1="652.081" x2="994.525" y2="631.01" stroke="#9A7D3C" stroke-width="3.0101" stroke-linecap="round"/>
<line x1="1003.56" y1="694.222" x2="1003.56" y2="673.151" stroke="#9A7D3C" stroke-width="3.0101" stroke-linecap="round"/>
<line x1="997.535" y1="739.373" x2="997.535" y2="718.302" stroke="#9A7D3C" stroke-width="3.0101" stroke-linecap="round"/>
<line x1="1015.6" y1="769.474" x2="1015.6" y2="748.404" stroke="#9A7D3C" stroke-width="3.0101" stroke-linecap="round"/>
<path d="M869.079 771.842C867.394 771.912 865.98 770.585 865.944 768.899L863.069 635.206C863.032 633.469 864.468 632.061 866.204 632.134L896.299 633.388C897.886 633.454 899.148 634.741 899.183 636.329L902.066 767.514C902.102 769.153 900.82 770.519 899.182 770.588L869.079 771.842Z" fill="#D5B777" stroke="#9A7D3C" stroke-width="3.0101"/>
<line x1="873.535" y1="770.465" x2="873.535" y2="749.394" stroke="#9A7D3C" stroke-width="3.0101" stroke-linecap="round"/>
<line x1="888.586" y1="734.344" x2="888.586" y2="713.273" stroke="#9A7D3C" stroke-width="3.0101" stroke-linecap="round"/>
<line x1="870.525" y1="683.172" x2="870.525" y2="662.101" stroke="#9A7D3C" stroke-width="3.0101" stroke-linecap="round"/>
<line x1="888.586" y1="656.081" x2="888.586" y2="635.01" stroke="#9A7D3C" stroke-width="3.0101" stroke-linecap="round"/>
<path d="M687.079 769.842C685.394 769.912 683.98 768.585 683.944 766.899L681.069 633.206C681.032 631.469 682.468 630.061 684.204 630.134L714.299 631.388C715.886 631.454 717.148 632.741 717.183 634.329L720.066 765.514C720.102 767.153 718.82 768.519 717.182 768.588L687.079 769.842Z" fill="#D5B777" stroke="#9A7D3C" stroke-width="3.0101"/>
<line x1="691.535" y1="768.465" x2="691.535" y2="747.394" stroke="#9A7D3C" stroke-width="3.0101" stroke-linecap="round"/>
<line x1="706.586" y1="732.344" x2="706.586" y2="711.273" stroke="#9A7D3C" stroke-width="3.0101" stroke-linecap="round"/>
<line x1="688.525" y1="681.172" x2="688.525" y2="660.101" stroke="#9A7D3C" stroke-width="3.0101" stroke-linecap="round"/>
<line x1="706.586" y1="654.081" x2="706.586" y2="633.01" stroke="#9A7D3C" stroke-width="3.0101" stroke-linecap="round"/>
<path d="M1055.08 767.842C1053.39 767.912 1051.98 766.585 1051.94 764.899L1049.07 631.206C1049.03 629.469 1050.47 628.061 1052.2 628.134L1082.3 629.388C1083.89 629.454 1085.15 630.741 1085.18 632.329L1088.07 763.514C1088.1 765.153 1086.82 766.519 1085.18 766.588L1055.08 767.842Z" fill="#D5B777" stroke="#9A7D3C" stroke-width="3.0101"/>
<line x1="1059.54" y1="766.465" x2="1059.54" y2="745.394" stroke="#9A7D3C" stroke-width="3.0101" stroke-linecap="round"/>
<line x1="1074.59" y1="730.344" x2="1074.59" y2="709.273" stroke="#9A7D3C" stroke-width="3.0101" stroke-linecap="round"/>
<line x1="1056.53" y1="679.172" x2="1056.53" y2="658.101" stroke="#9A7D3C" stroke-width="3.0101" stroke-linecap="round"/>
<line x1="1074.59" y1="652.081" x2="1074.59" y2="631.01" stroke="#9A7D3C" stroke-width="3.0101" stroke-linecap="round"/>
<path d="M563.079 770.872C561.394 770.942 559.98 769.615 559.944 767.929L557.069 634.236C557.032 632.499 558.468 631.092 560.204 631.164L590.299 632.418C591.886 632.484 593.148 633.771 593.183 635.359L596.066 766.544C596.102 768.183 594.82 769.55 593.182 769.618L563.079 770.872Z" fill="#D5B777" stroke="#9A7D3C" stroke-width="3.0101"/>
<line x1="564.525" y1="655.111" x2="564.525" y2="634.04" stroke="#9A7D3C" stroke-width="3.0101" stroke-linecap="round"/>
<line x1="579.576" y1="703.272" x2="579.576" y2="682.202" stroke="#9A7D3C" stroke-width="3.0101" stroke-linecap="round"/>
<line x1="570.545" y1="745.414" x2="570.545" y2="724.343" stroke="#9A7D3C" stroke-width="3.0101" stroke-linecap="round"/>
<line x1="588.606" y1="769.495" x2="588.606" y2="748.424" stroke="#9A7D3C" stroke-width="3.0101" stroke-linecap="round"/>
<path d="M501.079 769.872C499.394 769.942 497.98 768.615 497.944 766.929L495.069 633.236C495.032 631.499 496.468 630.092 498.204 630.164L528.299 631.418C529.886 631.484 531.148 632.771 531.183 634.359L534.066 765.544C534.102 767.183 532.82 768.55 531.182 768.618L501.079 769.872Z" fill="#D5B777" stroke="#9A7D3C" stroke-width="3.0101"/>
<line x1="502.525" y1="654.111" x2="502.525" y2="633.04" stroke="#9A7D3C" stroke-width="3.0101" stroke-linecap="round"/>
<line x1="517.576" y1="702.272" x2="517.576" y2="681.202" stroke="#9A7D3C" stroke-width="3.0101" stroke-linecap="round"/>
<line x1="508.545" y1="744.414" x2="508.545" y2="723.343" stroke="#9A7D3C" stroke-width="3.0101" stroke-linecap="round"/>
<line x1="526.606" y1="768.495" x2="526.606" y2="747.424" stroke="#9A7D3C" stroke-width="3.0101" stroke-linecap="round"/>
<path d="M1179.08 767.842C1177.39 767.912 1175.98 766.585 1175.94 764.899L1173.07 631.206C1173.03 629.469 1174.47 628.061 1176.2 628.134L1206.3 629.388C1207.89 629.454 1209.15 630.741 1209.18 632.329L1212.07 763.514C1212.1 765.153 1210.82 766.519 1209.18 766.588L1179.08 767.842Z" fill="#D5B777" stroke="#9A7D3C" stroke-width="3.0101"/>
<line x1="1180.53" y1="652.081" x2="1180.53" y2="631.01" stroke="#9A7D3C" stroke-width="3.0101" stroke-linecap="round"/>
<line x1="1195.58" y1="700.242" x2="1195.58" y2="679.171" stroke="#9A7D3C" stroke-width="3.0101" stroke-linecap="round"/>
<line x1="1186.55" y1="742.384" x2="1186.55" y2="721.313" stroke="#9A7D3C" stroke-width="3.0101" stroke-linecap="round"/>
<line x1="1204.61" y1="766.465" x2="1204.61" y2="745.394" stroke="#9A7D3C" stroke-width="3.0101" stroke-linecap="round"/>
<path d="M746.01 770.747C744.348 770.747 743 769.399 743 767.737L743 635.07C743 633.497 744.211 632.189 745.779 632.069L778.82 629.527C780.594 629.391 782.099 630.814 782.061 632.592L779.184 767.801C779.149 769.438 777.812 770.747 776.175 770.747L746.01 770.747Z" fill="#D5B777" stroke="#9A7D3C" stroke-width="3.0101"/>
<line x1="747.515" y1="770.747" x2="747.515" y2="749.676" stroke="#9A7D3C" stroke-width="3.0101" stroke-linecap="round"/>
<line x1="768.586" y1="749.677" x2="768.586" y2="728.606" stroke="#9A7D3C" stroke-width="3.0101" stroke-linecap="round"/>
<line x1="753.535" y1="698.505" x2="753.535" y2="677.434" stroke="#9A7D3C" stroke-width="3.0101" stroke-linecap="round"/>
<line x1="765.576" y1="653.353" x2="765.576" y2="632.283" stroke="#9A7D3C" stroke-width="3.0101" stroke-linecap="round"/>
<path d="M1114.01 770.746C1112.35 770.746 1111 769.398 1111 767.736L1111 635.069C1111 633.496 1112.21 632.188 1113.78 632.068L1146.82 629.526C1148.59 629.39 1150.1 630.813 1150.06 632.591L1147.18 767.8C1147.15 769.437 1145.81 770.746 1144.17 770.746L1114.01 770.746Z" fill="#D5B777" stroke="#9A7D3C" stroke-width="3.0101"/>
<line x1="1115.52" y1="770.746" x2="1115.52" y2="749.675" stroke="#9A7D3C" stroke-width="3.0101" stroke-linecap="round"/>
<line x1="1136.59" y1="749.676" x2="1136.59" y2="728.605" stroke="#9A7D3C" stroke-width="3.0101" stroke-linecap="round"/>
<line x1="1121.54" y1="698.504" x2="1121.54" y2="677.433" stroke="#9A7D3C" stroke-width="3.0101" stroke-linecap="round"/>
<line x1="1133.58" y1="653.352" x2="1133.58" y2="632.282" stroke="#9A7D3C" stroke-width="3.0101" stroke-linecap="round"/>
<path d="M809.34 767.871C807.748 767.795 806.491 766.492 806.474 764.898L805.034 635.325C805.015 633.65 806.368 632.282 808.044 632.282L836.573 632.282C838.248 632.282 839.601 633.65 839.583 635.325L838.146 766.119C838.127 767.825 836.696 769.174 834.992 769.093L809.34 767.871Z" fill="#D5B777" stroke="#9A7D3C" stroke-width="3.0101"/>
<line x1="815.535" y1="767.736" x2="815.535" y2="746.665" stroke="#9A7D3C" stroke-width="3.0101" stroke-linecap="round"/>
<line x1="830.586" y1="653.352" x2="830.586" y2="632.282" stroke="#9A7D3C" stroke-width="3.0101" stroke-linecap="round"/>
<line x1="830.586" y1="746.666" x2="830.586" y2="725.595" stroke="#9A7D3C" stroke-width="3.0101" stroke-linecap="round"/>
<line x1="818.545" y1="686.464" x2="818.545" y2="665.393" stroke="#9A7D3C" stroke-width="3.0101" stroke-linecap="round"/>
<path d="M455.815 188.939C451.663 188.939 447.748 188.197 444.07 186.714C440.452 185.172 437.308 183.007 434.639 180.219C432.029 177.431 430.071 174.139 428.766 170.343L440.066 165.271C441.727 168.889 444.011 171.737 446.918 173.813C449.883 175.889 453.146 176.927 456.705 176.927C458.603 176.927 460.234 176.63 461.599 176.037C462.963 175.444 464.031 174.643 464.802 173.635C465.573 172.567 465.959 171.321 465.959 169.898C465.959 168.355 465.484 167.05 464.535 165.983C463.586 164.856 462.103 163.966 460.086 163.313L447.096 159.043C441.816 157.322 437.842 154.89 435.173 151.746C432.503 148.543 431.169 144.717 431.169 140.268C431.169 136.353 432.118 132.913 434.016 129.947C435.973 126.981 438.672 124.668 442.113 123.007C445.613 121.346 449.617 120.516 454.125 120.516C458.099 120.516 461.777 121.198 465.158 122.562C468.539 123.926 471.446 125.854 473.878 128.346C476.369 130.837 478.237 133.832 479.483 137.332L468.272 142.404C467.026 139.319 465.158 136.917 462.667 135.197C460.175 133.417 457.328 132.527 454.125 132.527C452.286 132.527 450.655 132.824 449.231 133.417C447.807 134.01 446.71 134.871 445.939 135.998C445.168 137.065 444.782 138.311 444.782 139.735C444.782 141.277 445.286 142.641 446.295 143.828C447.303 144.955 448.816 145.844 450.833 146.497L463.556 150.59C468.895 152.31 472.869 154.712 475.479 157.797C478.148 160.881 479.483 164.648 479.483 169.097C479.483 172.953 478.475 176.393 476.458 179.418C474.441 182.384 471.653 184.727 468.094 186.447C464.594 188.108 460.501 188.939 455.815 188.939Z" fill="#D4B777"/>
<path d="M391.788 187.871V158.953L369.721 121.583H385.47L401.486 149.7H395.88L411.807 121.583H427.556L405.579 158.864V187.871H391.788Z" fill="#D4B777"/>
<path d="M316.148 187.871L338.57 121.583H356.899L379.321 187.871H364.284L359.835 174.346H335.545L331.096 187.871H316.148ZM339.371 162.334H356.009L345.866 131.015H349.603L339.371 162.334Z" fill="#D4B777"/>
<path d="M248.776 187.871L231.425 121.583H246.373L259.453 177.104H255.449L269.24 121.583H283.476L297.268 177.104H293.264L306.343 121.583H321.292L303.941 187.871H287.925L274.045 134.485H278.672L264.791 187.871H248.776Z" fill="#D4B777"/>
<path d="M193.916 187.871V121.583H207.707V175.859H235.735V187.871H193.916Z" fill="#D4B777"/>
<path d="M168.37 187.871V121.583H182.161V187.871H168.37Z" fill="#D4B777"/>
<path d="M98.3077 187.871L120.73 121.583H139.059L161.481 187.871H146.444L141.995 174.346H117.705L113.256 187.871H98.3077ZM121.531 162.334H138.169L128.026 131.015H131.763L121.531 162.334Z" fill="#D4B777"/>
<path d="M38.516 187.871V121.583H63.8744C68.4419 121.583 72.4755 122.384 75.9752 123.985C79.5343 125.587 82.3222 127.96 84.339 131.104C86.3558 134.247 87.3642 138.133 87.3642 142.759C87.3642 147.268 86.3262 151.123 84.25 154.326C82.1739 157.47 79.386 159.843 75.8862 161.445L91.0123 187.871H75.5303L59.1586 158.597L68.0563 163.847H52.3074V187.871H38.516ZM52.3074 151.835H63.9634C65.9208 151.835 67.6114 151.45 69.035 150.678C70.4587 149.907 71.556 148.84 72.3272 147.475C73.1576 146.111 73.5728 144.539 73.5728 142.759C73.5728 140.921 73.1576 139.319 72.3272 137.955C71.556 136.59 70.4587 135.523 69.035 134.752C67.6114 133.98 65.9208 133.595 63.9634 133.595H52.3074V151.835Z" fill="#D4B777"/>
<path fill-rule="evenodd" clip-rule="evenodd" d="M442.382 190.903C442.354 190.892 442.327 190.881 442.3 190.869C438.131 189.092 434.477 186.58 431.377 183.343L431.355 183.319L431.342 183.306C428.275 180.029 425.997 176.178 424.496 171.811C423.736 169.602 424.787 167.179 426.917 166.223L438.217 161.151C438.656 160.954 439.109 160.833 439.563 160.782C436.467 159.153 433.823 157.135 431.73 154.67L431.703 154.638C428.311 150.566 426.653 145.698 426.653 140.269C426.653 135.591 427.798 131.285 430.212 127.513C430.219 127.503 430.225 127.494 430.231 127.484L430.247 127.46C432.687 123.763 436.033 120.928 440.15 118.94L440.177 118.927C444.373 116.936 449.056 116 454.125 116C458.626 116 462.883 116.775 466.848 118.375C470.772 119.958 474.205 122.222 477.09 125.172C480.071 128.159 482.283 131.731 483.738 135.818C484.525 138.031 483.485 140.479 481.345 141.447L470.133 146.519C469.013 147.026 467.734 147.054 466.592 146.596C465.451 146.139 464.545 145.236 464.085 144.095C463.136 141.746 461.794 140.082 460.101 138.913C460.081 138.9 460.061 138.886 460.042 138.872C458.353 137.666 456.433 137.044 454.125 137.044C452.77 137.044 451.746 137.262 450.968 137.586C450.243 137.888 449.882 138.232 449.666 138.548C449.644 138.58 449.622 138.611 449.6 138.642C449.43 138.877 449.298 139.18 449.298 139.735C449.298 140.175 449.405 140.497 449.697 140.856C450.019 141.197 450.734 141.719 452.22 142.2C452.221 142.2 452.222 142.2 452.223 142.2L464.939 146.291L464.941 146.292C470.775 148.171 475.584 150.939 478.911 154.862C482.346 158.84 483.999 163.678 483.999 169.097C483.999 173.788 482.757 178.111 480.215 181.924L480.192 181.958C477.685 185.645 474.257 188.485 470.059 190.514L470.03 190.528C465.812 192.53 461.033 193.455 455.815 193.455C451.112 193.455 446.621 192.613 442.382 190.903ZM475.479 157.797C472.869 154.713 468.895 152.31 463.556 150.59L450.833 146.497C448.816 145.845 447.303 144.955 446.295 143.828C445.286 142.642 444.782 141.277 444.782 139.735C444.782 138.311 445.168 137.066 445.939 135.998C446.71 134.871 447.807 134.011 449.231 133.418C450.655 132.824 452.286 132.528 454.125 132.528C457.328 132.528 460.175 133.418 462.667 135.197C464.757 136.641 466.41 138.565 467.623 140.97C467.856 141.43 468.072 141.908 468.272 142.404L479.483 137.333C478.989 135.944 478.397 134.635 477.707 133.406C477.673 133.346 477.639 133.286 477.605 133.226C476.575 131.427 475.332 129.801 473.878 128.346C471.446 125.855 468.539 123.927 465.158 122.562C461.777 121.198 458.099 120.516 454.125 120.516C449.617 120.516 445.613 121.346 442.113 123.007C438.672 124.668 435.974 126.982 434.016 129.948C432.118 132.913 431.169 136.354 431.169 140.269C431.169 144.718 432.503 148.544 435.173 151.747C437.842 154.891 441.816 157.323 447.096 159.043L460.086 163.314C462.103 163.966 463.586 164.856 464.535 165.983C465.484 167.051 465.959 168.356 465.959 169.898C465.959 171.322 465.573 172.567 464.802 173.635C464.031 174.644 462.963 175.444 461.599 176.037C460.235 176.631 458.603 176.927 456.705 176.927C453.146 176.927 449.884 175.889 446.918 173.813C444.011 171.737 441.727 168.89 440.066 165.271L428.766 170.343C430.071 174.139 432.029 177.431 434.639 180.219C437.308 183.007 440.452 185.172 444.07 186.715C447.748 188.198 451.663 188.939 455.815 188.939C460.501 188.939 464.594 188.109 468.094 186.448C471.653 184.728 474.441 182.384 476.458 179.419C478.475 176.393 479.483 172.953 479.483 169.097C479.483 164.648 478.149 160.882 475.479 157.797ZM449.525 170.126C451.741 171.672 454.096 172.411 456.705 172.411C458.148 172.411 459.136 172.184 459.798 171.896C460.536 171.575 460.939 171.232 461.175 170.942C461.328 170.714 461.443 170.416 461.443 169.898C461.443 169.366 461.313 169.156 461.16 168.983C461.133 168.953 461.107 168.923 461.081 168.892C460.865 168.636 460.243 168.111 458.696 167.611L458.676 167.604L445.697 163.337C445.694 163.336 445.692 163.335 445.69 163.334C445.028 163.119 444.38 162.891 443.746 162.652C443.908 162.879 444.05 163.125 444.171 163.387C445.538 166.366 447.338 168.559 449.525 170.126Z" fill="#AD9255"/>
<path fill-rule="evenodd" clip-rule="evenodd" d="M391.788 192.387C389.293 192.387 387.272 190.365 387.272 187.871V160.187L365.833 123.88C365.008 122.483 364.996 120.753 365.799 119.345C366.603 117.937 368.1 117.067 369.721 117.067H385.47C387.093 117.067 388.591 117.938 389.394 119.348L398.664 135.623L407.878 119.358C408.68 117.942 410.181 117.067 411.807 117.067H427.556C429.177 117.067 430.673 117.936 431.477 119.343C432.281 120.75 432.27 122.481 431.447 123.877L410.095 160.097V187.871C410.095 190.365 408.073 192.387 405.579 192.387H391.788ZM405.579 158.865L427.556 121.583H411.807L398.675 144.766L385.47 121.583H369.721L391.788 158.954V187.871H405.579V158.865Z" fill="#AD9255"/>
<path fill-rule="evenodd" clip-rule="evenodd" d="M312.478 190.503C311.63 189.321 311.403 187.802 311.87 186.424L334.292 120.136C334.912 118.302 336.633 117.067 338.57 117.067H356.899C358.835 117.067 360.556 118.302 361.177 120.136L383.599 186.424C384.065 187.802 383.839 189.321 382.991 190.503C382.142 191.686 380.776 192.387 379.321 192.387H364.284C362.334 192.387 360.604 191.135 359.994 189.282L356.567 178.863H338.813L335.386 189.282C334.776 191.135 333.046 192.387 331.096 192.387H316.148C314.692 192.387 313.326 191.686 312.478 190.503ZM335.545 174.347H359.835L364.284 187.871H379.321L356.899 121.583H338.57L316.148 187.871H331.096L335.545 174.347ZM339.371 162.335H356.009L347.726 136.759L339.371 162.335ZM347.707 151.358L345.597 157.819H349.8L347.707 151.358Z" fill="#AD9255"/>
<path fill-rule="evenodd" clip-rule="evenodd" d="M248.776 192.387C246.722 192.387 244.927 191.001 244.407 189.015L227.056 122.727C226.702 121.373 226.995 119.932 227.85 118.824C228.705 117.716 230.026 117.067 231.425 117.067H246.373C248.468 117.067 250.288 118.508 250.769 120.548L257.62 149.631L264.857 120.495C265.358 118.481 267.165 117.067 269.24 117.067H283.476C285.551 117.067 287.359 118.481 287.859 120.495L295.097 149.631L301.948 120.548C302.428 118.508 304.248 117.067 306.343 117.067H321.292C322.691 117.067 324.011 117.716 324.866 118.824C325.721 119.932 326.015 121.373 325.66 122.727L308.31 189.015C307.79 191.001 305.995 192.387 303.941 192.387H287.925C285.869 192.387 284.072 190.998 283.555 189.007L276.358 161.329L269.162 189.007C268.645 190.998 266.848 192.387 264.791 192.387H248.776ZM276.358 143.383L287.925 187.871H303.941L321.292 121.583H306.343L295.213 168.832L283.476 121.583H269.24L257.504 168.832L246.373 121.583H231.425L248.776 187.871H264.791L276.358 143.383Z" fill="#AD9255"/>
<path fill-rule="evenodd" clip-rule="evenodd" d="M193.916 192.387C191.422 192.387 189.4 190.365 189.4 187.871V121.583C189.4 119.089 191.422 117.067 193.916 117.067H207.707C210.201 117.067 212.223 119.089 212.223 121.583V171.343H235.735C238.229 171.343 240.251 173.365 240.251 175.859V187.871C240.251 190.365 238.229 192.387 235.735 192.387H193.916ZM207.707 175.859V121.583H193.916V187.871H235.735V175.859H207.707Z" fill="#AD9255"/>
<path fill-rule="evenodd" clip-rule="evenodd" d="M168.37 192.387C165.876 192.387 163.854 190.365 163.854 187.871V121.583C163.854 119.089 165.876 117.067 168.37 117.067H182.161C184.655 117.067 186.677 119.089 186.677 121.583V187.871C186.677 190.365 184.655 192.387 182.161 192.387H168.37ZM168.37 187.871H182.161V121.583H168.37V187.871Z" fill="#AD9255"/>
<path fill-rule="evenodd" clip-rule="evenodd" d="M94.6382 190.503C93.79 189.321 93.5635 187.802 94.0297 186.424L116.452 120.136C117.072 118.302 118.793 117.067 120.73 117.067H139.059C140.995 117.067 142.716 118.302 143.337 120.136L165.759 186.424C166.225 187.802 165.999 189.321 165.151 190.503C164.302 191.686 162.936 192.387 161.481 192.387H146.444C144.494 192.387 142.764 191.135 142.154 189.282L138.727 178.863H120.973L117.546 189.282C116.936 191.135 115.206 192.387 113.256 192.387H98.3076C96.8525 192.387 95.4865 191.686 94.6382 190.503ZM117.705 174.347H141.995L146.444 187.871H161.481L139.059 121.583H120.73L98.3076 187.871H113.256L117.705 174.347ZM121.531 162.335H138.169L129.886 136.759L121.531 162.335ZM129.867 151.359L127.757 157.819H131.96L129.867 151.359Z" fill="#AD9255"/>
<path fill-rule="evenodd" clip-rule="evenodd" d="M38.516 192.387C36.0219 192.387 34 190.365 34 187.871V121.583C34 119.089 36.0219 117.067 38.516 117.067H63.8744C68.9656 117.067 73.6555 117.96 77.8415 119.873C82.1552 121.817 85.6312 124.755 88.1401 128.665C90.7239 132.693 91.8802 137.475 91.8802 142.76C91.8802 147.979 90.6702 152.724 88.0397 156.783L88.0185 156.815C86.3816 159.294 84.3759 161.386 82.0264 163.081L94.9316 185.628C95.7316 187.025 95.7268 188.743 94.919 190.136C94.1112 191.529 92.6227 192.387 91.0123 192.387H75.5303C73.8948 192.387 72.3872 191.503 71.5888 190.075L59.4459 168.363H56.8234V187.871C56.8234 190.365 54.8015 192.387 52.3074 192.387H38.516ZM52.3074 163.847H62.0946L75.5303 187.871H91.0123L75.8862 161.445C77.0789 160.899 78.1889 160.264 79.2163 159.539C81.2035 158.137 82.8814 156.399 84.25 154.327C86.3262 151.124 87.3642 147.268 87.3642 142.76C87.3642 138.133 86.3558 134.248 84.339 131.104C82.3222 127.96 79.5343 125.587 75.9752 123.986C72.4755 122.384 68.4418 121.583 63.8744 121.583H38.516V187.871H52.3074V163.847ZM72.3272 137.955C73.1576 139.319 73.5728 140.921 73.5728 142.76C73.5728 144.539 73.1576 146.111 72.3272 147.476C71.556 148.84 70.4586 149.908 69.035 150.679C67.6114 151.45 65.9208 151.835 63.9634 151.835H52.3074V133.595H63.9634C65.9208 133.595 67.6114 133.981 69.035 134.752C70.4586 135.523 71.556 136.591 72.3272 137.955ZM56.8234 138.111V147.319H63.9634C65.3257 147.319 66.2457 147.054 66.8841 146.708C67.5877 146.327 68.0563 145.854 68.3957 145.253C68.4196 145.211 68.4443 145.169 68.4696 145.128C68.8215 144.549 69.0568 143.808 69.0568 142.76C69.0568 141.622 68.8075 140.858 68.4696 140.303C68.4443 140.262 68.4196 140.22 68.3957 140.177C68.0563 139.577 67.5878 139.104 66.8841 138.723C66.2457 138.377 65.3257 138.111 63.9634 138.111H56.8234Z" fill="#AD9255"/>
<line x1="37.1596" y1="127.955" x2="64.1404" y2="127.955" stroke="#AD9255" stroke-width="1.50534"/>
<line x1="103.394" y1="169.728" x2="122.211" y2="169.728" stroke="#AD9255" stroke-width="2.25801"/>
<line x1="125.975" y1="129.461" x2="144.791" y2="129.461" stroke="#AD9255" stroke-width="3.01068"/>
<line x1="177.909" y1="131.719" x2="177.909" y2="120.429" stroke="#AD9255" stroke-width="3.01068"/>
<line x1="171.887" y1="191.18" x2="171.887" y2="179.89" stroke="#AD9255" stroke-width="3.01068"/>
<line x1="246.056" y1="136.497" x2="242.293" y2="120.691" stroke="#AD9255" stroke-width="2.25801"/>
<line x1="224.574" y1="182.524" x2="236.617" y2="182.524" stroke="#AD9255" stroke-width="2.25801"/>
<line x1="192.209" y1="174.622" x2="216.295" y2="174.622" stroke="#AD9255" stroke-width="3.01068"/>
<line x1="364.571" y1="170.105" x2="375.108" y2="170.105" stroke="#AD9255" stroke-width="1.50534"/>
<line x1="455.644" y1="182.148" x2="478.224" y2="182.148" stroke="#AD9255" stroke-width="3.01068"/>
<line x1="434.569" y1="127.956" x2="451.88" y2="127.956" stroke="#AD9255" stroke-width="3.01068"/>
<line x1="257.651" y1="162.984" x2="264.425" y2="191.586" stroke="#AD9255" stroke-width="3.01068"/>
<line x1="295.285" y1="162.984" x2="302.059" y2="191.586" stroke="#AD9255" stroke-width="3.01068"/>
<line x1="295.285" y1="162.984" x2="302.059" y2="191.586" stroke="#AD9255" stroke-width="3.01068"/>
<line x1="323.927" y1="161.073" x2="373.603" y2="161.073" stroke="#AD9255" stroke-width="3.01068"/>
<line x1="317.905" y1="176.126" x2="376.613" y2="176.126" stroke="#AD9255" stroke-width="3.01068"/>
<line x1="397.529" y1="139.325" x2="408.067" y2="160.4" stroke="#AD9255" stroke-width="3.01068"/>
<line x1="374.874" y1="119.623" x2="389.175" y2="142.203" stroke="#AD9255" stroke-width="3.01068"/>
<line x1="98.8784" y1="176.126" x2="157.587" y2="176.126" stroke="#AD9255" stroke-width="3.01068"/>
<line x1="104.147" y1="161.826" x2="156.834" y2="161.826" stroke="#AD9255" stroke-width="3.01068"/>
<line x1="37.1596" y1="163.331" x2="80.0617" y2="163.331" stroke="#AD9255" stroke-width="3.01068"/>
<line x1="305.881" y1="136.82" x2="309.645" y2="120.262" stroke="#AD9255" stroke-width="1.50534"/>
</g>
<defs>
<filter id="filter0_d_35_3685" x="-120.564" y="639.436" width="1468.13" height="32.1282" filterUnits="userSpaceOnUse" color-interpolation-filters="sRGB">
<feFlood flood-opacity="0" result="BackgroundImageFix"/>
<feColorMatrix in="SourceAlpha" type="matrix" values="0 0 0 0 0 0 0 0 0 0 0 0 0 0 0 0 0 0 127 0" result="hardAlpha"/>
<feMorphology radius="5.28187" operator="dilate" in="SourceAlpha" result="effect1_dropShadow_35_3685"/>
<feOffset/>
<feComposite in2="hardAlpha" operator="out"/>
<feColorMatrix type="matrix" values="0 0 0 0 0.281908 0 0 0 0 0.387944 0 0 0 0 0.546999 0 0 0 0.02 0"/>
<feBlend mode="normal" in2="BackgroundImageFix" result="effect1_dropShadow_35_3685"/>
<feBlend mode="normal" in="SourceGraphic" in2="effect1_dropShadow_35_3685" result="shape"/>
</filter>
<filter id="filter1_d_35_3685" x="-120.564" y="728.436" width="1468.13" height="32.1282" filterUnits="userSpaceOnUse" color-interpolation-filters="sRGB">
<feFlood flood-opacity="0" result="BackgroundImageFix"/>
<feColorMatrix in="SourceAlpha" type="matrix" values="0 0 0 0 0 0 0 0 0 0 0 0 0 0 0 0 0 0 127 0" result="hardAlpha"/>
<feMorphology radius="5.28187" operator="dilate" in="SourceAlpha" result="effect1_dropShadow_35_3685"/>
<feOffset/>
<feComposite in2="hardAlpha" operator="out"/>
<feColorMatrix type="matrix" values="0 0 0 0 0.281908 0 0 0 0 0.387944 0 0 0 0 0.546999 0 0 0 0.02 0"/>
<feBlend mode="normal" in2="BackgroundImageFix" result="effect1_dropShadow_35_3685"/>
<feBlend mode="normal" in="SourceGraphic" in2="effect1_dropShadow_35_3685" result="shape"/>
</filter>
<clipPath id="clip0_35_3685">
<rect width="1280" height="832" fill="white"/>
</clipPath>
</defs>
</svg>
